<svg width="40" height="40" viewBox="0 0 40 40" fill="none" xmlns="http://www.w3.org/2000/svg">
<path d="M19.9931 3.33333C10.7788 3.33333 3.33331 10.7925 3.33331 19.9931C3.33331 27.0547 7.72108 33.0879 13.9188 35.5149C13.768 34.1985 13.6446 32.1692 13.9736 30.7295C14.2753 29.4268 15.9207 22.4476 15.9207 22.4476C15.9207 22.4476 15.4271 21.4466 15.4271 19.9794C15.4271 17.6621 16.7708 15.9345 18.4437 15.9345C19.8697 15.9345 20.5553 17.004 20.5553 18.2792C20.5553 19.7052 19.6503 21.8442 19.1704 23.8324C18.7728 25.4916 20.0068 26.849 21.6385 26.849C24.6003 26.849 26.8764 23.7227 26.8764 19.2253C26.8764 15.2352 24.0107 12.4517 19.9108 12.4517C15.1666 12.4517 12.3831 16.003 12.3831 19.6778C12.3831 21.1038 12.9315 22.6395 13.6171 23.4759C13.7543 23.6405 13.768 23.7913 13.7268 23.9558C13.6034 24.4769 13.3155 25.615 13.2606 25.8481C13.1921 26.1497 13.0138 26.2183 12.6984 26.0675C10.6417 25.0802 9.35278 22.0362 9.35278 19.5955C9.35278 14.3439 13.1646 9.51733 20.3633 9.51733C26.136 9.51733 30.6335 13.6309 30.6335 19.143C30.6335 24.8882 27.0135 29.5091 21.995 29.5091C20.3085 29.5091 18.7179 28.6316 18.1832 27.5895C18.1832 27.5895 17.3467 30.7706 17.1411 31.5522C16.7708 33.0056 15.7562 34.8156 15.0706 35.9262C16.6337 36.4061 18.2791 36.6667 20.0068 36.6667C29.2074 36.6667 36.6667 29.2075 36.6667 20.0069C36.653 10.7925 29.1937 3.33333 19.9931 3.33333Z" fill="black"/>
</svg>
