<svg width="35" height="35" viewBox="0 0 35 35" fill="none" xmlns="http://www.w3.org/2000/svg">
<path d="M17.5 0C7.83523 0 0 7.83443 0 17.5C0 27.1656 7.83523 35 17.5 35C27.1648 35 35 27.1656 35 17.5C35 7.83443 27.1648 0 17.5 0ZM26.0379 25.2273C25.7568 25.725 25.2398 26.005 24.7068 26.005C24.4576 26.005 24.2004 25.9427 23.9644 25.8114C21.7795 24.5864 19.3985 23.8361 16.8822 23.5812C14.3606 23.3286 11.8708 23.5844 9.47917 24.3481C8.68106 24.6029 7.82198 24.1619 7.56743 23.3625C7.31024 22.5617 7.75303 21.7056 8.55379 21.4494C11.3432 20.5583 14.2519 20.2552 17.1898 20.5537C20.1223 20.8523 22.9011 21.7273 25.4519 23.157C26.1864 23.5659 26.4488 24.4934 26.0379 25.2273ZM28.1326 19.9118C27.8621 20.4323 27.3318 20.7309 26.783 20.7309C26.5443 20.7309 26.3057 20.6762 26.0803 20.5583C23.3943 19.1593 20.4935 18.2931 17.4523 17.9844C14.3871 17.6708 11.3511 17.9441 8.42387 18.7884C7.61516 19.018 6.77198 18.5556 6.5413 17.7471C6.30797 16.94 6.77461 16.0968 7.58067 15.8637C10.8845 14.9111 14.3102 14.6059 17.7598 14.9559C21.1856 15.3048 24.4576 16.2806 27.4883 17.8598C28.2307 18.2483 28.5223 19.1667 28.1326 19.9118ZM28.8909 15.4896C28.6629 15.4896 28.4322 15.4382 28.2121 15.33C25.025 13.7407 21.5966 12.7509 18.0197 12.3879C14.4375 12.0214 10.8739 12.3046 7.42424 13.2258C6.61288 13.4411 5.7803 12.9598 5.56287 12.1471C5.34545 11.3355 5.82804 10.5011 6.64206 10.2844C10.447 9.26837 14.3818 8.95894 18.3299 9.36038C22.2727 9.75943 26.0538 10.8521 29.5697 12.6056C30.3227 12.9805 30.6276 13.895 30.2538 14.6464C29.9886 15.1813 29.4504 15.4896 28.8909 15.4896Z" fill="black"/>
</svg>
