<svg width="112" height="17" viewBox="0 0 112 17" fill="none" xmlns="http://www.w3.org/2000/svg">
<path d="M8.68 2.1V3.96H2.78V8.06H7.38V9.92H2.78V16H0.5V2.1H8.68ZM15.833 2.1C17.313 2.1 18.6063 2.38667 19.713 2.96C20.833 3.52 21.693 4.33333 22.293 5.4C22.9063 6.45333 23.213 7.68667 23.213 9.1C23.213 10.5133 22.9063 11.74 22.293 12.78C21.693 13.82 20.833 14.62 19.713 15.18C18.6063 15.7267 17.313 16 15.833 16H11.293V2.1H15.833ZM15.833 14.14C17.4596 14.14 18.7063 13.7 19.573 12.82C20.4396 11.94 20.873 10.7 20.873 9.1C20.873 7.48667 20.4396 6.22667 19.573 5.32C18.7063 4.41333 17.4596 3.96 15.833 3.96H13.573V14.14H15.833ZM37.3927 16H35.1127L28.2527 5.62V16H25.9727V2.08H28.2527L35.1127 12.44V2.08H37.3927V16ZM45.4267 2.1C46.9067 2.1 48.2001 2.38667 49.3067 2.96C50.4267 3.52 51.2867 4.33333 51.8867 5.4C52.5001 6.45333 52.8067 7.68667 52.8067 9.1C52.8067 10.5133 52.5001 11.74 51.8867 12.78C51.2867 13.82 50.4267 14.62 49.3067 15.18C48.2001 15.7267 46.9067 16 45.4267 16H40.8867V2.1H45.4267ZM45.4267 14.14C47.0534 14.14 48.3001 13.7 49.1667 12.82C50.0334 11.94 50.4667 10.7 50.4667 9.1C50.4667 7.48667 50.0334 6.22667 49.1667 5.32C48.3001 4.41333 47.0534 3.96 45.4267 3.96H43.1667V14.14H45.4267ZM70.2417 2.1V3.96H66.5417V16H64.2617V3.96H60.5417V2.1H70.2417ZM75.3308 6.58C75.6641 6.02 76.1041 5.58667 76.6508 5.28C77.2108 4.96 77.8708 4.8 78.6308 4.8V7.16H78.0508C77.1574 7.16 76.4774 7.38667 76.0108 7.84C75.5574 8.29333 75.3308 9.08 75.3308 10.2V16H73.0508V4.98H75.3308V6.58ZM82.3866 3.52C81.9732 3.52 81.6266 3.38 81.3466 3.1C81.0666 2.82 80.9266 2.47333 80.9266 2.06C80.9266 1.64667 81.0666 1.3 81.3466 1.02C81.6266 0.739999 81.9732 0.599999 82.3866 0.599999C82.7866 0.599999 83.1266 0.739999 83.4066 1.02C83.6866 1.3 83.8266 1.64667 83.8266 2.06C83.8266 2.47333 83.6866 2.82 83.4066 3.1C83.1266 3.38 82.7866 3.52 82.3866 3.52ZM83.5066 4.98V16H81.2266V4.98H83.5066ZM89.28 6.62C89.6667 6.08667 90.1933 5.65333 90.86 5.32C91.54 4.97333 92.2933 4.8 93.12 4.8C94.0933 4.8 94.9733 5.03333 95.76 5.5C96.5467 5.96667 97.1667 6.63333 97.62 7.5C98.0733 8.35333 98.3 9.33333 98.3 10.44C98.3 11.5467 98.0733 12.54 97.62 13.42C97.1667 14.2867 96.54 14.9667 95.74 15.46C94.9533 15.94 94.08 16.18 93.12 16.18C92.2667 16.18 91.5067 16.0133 90.84 15.68C90.1867 15.3467 89.6667 14.92 89.28 14.4V16H87V1.2H89.28V6.62ZM95.98 10.44C95.98 9.68 95.82 9.02667 95.5 8.48C95.1933 7.92 94.78 7.5 94.26 7.22C93.7533 6.92667 93.2067 6.78 92.62 6.78C92.0467 6.78 91.5 6.92667 90.98 7.22C90.4733 7.51333 90.06 7.94 89.74 8.5C89.4333 9.06 89.28 9.72 89.28 10.48C89.28 11.24 89.4333 11.9067 89.74 12.48C90.06 13.04 90.4733 13.4667 90.98 13.76C91.5 14.0533 92.0467 14.2 92.62 14.2C93.2067 14.2 93.7533 14.0533 94.26 13.76C94.78 13.4533 95.1933 13.0133 95.5 12.44C95.82 11.8667 95.98 11.2 95.98 10.44ZM111.155 10.22C111.155 10.6333 111.128 11.0067 111.075 11.34H102.655C102.721 12.22 103.048 12.9267 103.635 13.46C104.221 13.9933 104.941 14.26 105.795 14.26C107.021 14.26 107.888 13.7467 108.395 12.72H110.855C110.521 13.7333 109.915 14.5667 109.035 15.22C108.168 15.86 107.088 16.18 105.795 16.18C104.741 16.18 103.795 15.9467 102.955 15.48C102.128 15 101.475 14.3333 100.995 13.48C100.528 12.6133 100.295 11.6133 100.295 10.48C100.295 9.34667 100.521 8.35333 100.975 7.5C101.441 6.63333 102.088 5.96667 102.915 5.5C103.755 5.03333 104.715 4.8 105.795 4.8C106.835 4.8 107.761 5.02667 108.575 5.48C109.388 5.93333 110.021 6.57333 110.475 7.4C110.928 8.21333 111.155 9.15333 111.155 10.22ZM108.775 9.5C108.761 8.66 108.461 7.98667 107.875 7.48C107.288 6.97333 106.561 6.72 105.695 6.72C104.908 6.72 104.235 6.97333 103.675 7.48C103.115 7.97333 102.781 8.64667 102.675 9.5H108.775Z" fill="#1E1E1E"/>
</svg>
