<svg width="16" height="16" viewBox="0 0 16 16" fill="none" xmlns="http://www.w3.org/2000/svg">
<path d="M5.33333 1.33334L4.97978 0.97979L5.33333 0.626237L5.68689 0.97979L5.33333 1.33334ZM5.83333 11.3333C5.83333 11.6095 5.60948 11.8333 5.33333 11.8333C5.05719 11.8333 4.83333 11.6095 4.83333 11.3333L5.83333 11.3333ZM1.64645 4.31312L4.97978 0.97979L5.68689 1.6869L2.35355 5.02023L1.64645 4.31312ZM5.68689 0.97979L9.02022 4.31312L8.31311 5.02023L4.97978 1.6869L5.68689 0.97979ZM5.83333 1.33334L5.83333 11.3333L4.83333 11.3333L4.83333 1.33334L5.83333 1.33334Z" fill="#33363F"/>
<path d="M10.6667 14.6667L10.3132 15.0202L10.6667 15.3738L11.0203 15.0202L10.6667 14.6667ZM11.1667 4.66666C11.1667 4.39051 10.9428 4.16666 10.6667 4.16666C10.3906 4.16666 10.1667 4.39051 10.1667 4.66666L11.1667 4.66666ZM6.97982 11.6869L10.3132 15.0202L11.0203 14.3131L7.68693 10.9798L6.97982 11.6869ZM11.0203 15.0202L14.3536 11.6869L13.6465 10.9798L10.3132 14.3131L11.0203 15.0202ZM11.1667 14.6667L11.1667 4.66666L10.1667 4.66666L10.1667 14.6667L11.1667 14.6667Z" fill="#33363F"/>
</svg>
